<svg version="1.1" viewBox="0.0 0.0 322.99212598425197 314.3884514435696" fill="none" stroke="none" stroke-linecap="square" stroke-miterlimit="10" xmlns:xlink="http://www.w3.org/1999/xlink" xmlns="http://www.w3.org/2000/svg"><clipPath id="p.0"><path d="m0 0l322.99213 0l0 314.38846l-322.99213 0l0 -314.38846z" clip-rule="nonzero"/></clipPath><g clip-path="url(#p.0)"><path fill="#000000" fill-opacity="0.0" d="m0 0l322.99213 0l0 314.38846l-322.99213 0z" fill-rule="evenodd"/><path fill="#e69138" d="m11.204724 12.270341l199.93701 0l0 199.93701l-199.93701 0z" fill-rule="evenodd"/><path stroke="#f6b26b" stroke-width="1.0" stroke-linejoin="round" stroke-linecap="butt" d="m11.204724 12.270341l199.93701 0l0 199.93701l-199.93701 0z" fill-rule="evenodd"/><path fill="#e69138" d="m169.85039 198.60104l0 0c0 -40.695114 32.98993 -73.685036 73.68504 -73.685036l0 0c19.54248 0 38.284576 7.7632217 52.10318 21.581856c13.818634 13.818619 21.581848 32.5607 21.581848 52.10318l0 0c0 40.69513 -32.9899 73.68506 -73.68503 73.68506l0 0c-40.695114 0 -73.68504 -32.98993 -73.68504 -73.68506z" fill-rule="evenodd"/><path stroke="#ffd966" stroke-width="1.0" stroke-linejoin="round" stroke-linecap="butt" d="m169.85039 198.60104l0 0c0 -40.695114 32.98993 -73.685036 73.68504 -73.685036l0 0c19.54248 0 38.284576 7.7632217 52.10318 21.581856c13.818634 13.818619 21.581848 32.5607 21.581848 52.10318l0 0c0 40.69513 -32.9899 73.68506 -73.68503 73.68506l0 0c-40.695114 0 -73.68504 -32.98993 -73.68504 -73.68506z" fill-rule="evenodd"/><path fill="#434343" d="m239.28871 214.70892l0 0c-2.8527374 -5.357605 -0.81510925 -12.020447 4.551193 -14.881897l0 0c2.5769806 -1.374115 5.592621 -1.6699066 8.383514 -0.82229614c2.7908936 0.8476105 5.128418 2.7691803 6.4983826 5.34198l0 0c2.8527222 5.357605 0.815094 12.020447 -4.551193 14.881897l0 0c-5.3663025 2.861435 -12.029144 0.8379059 -14.881897 -4.519684z" fill-rule="evenodd"/><path stroke="#000000" stroke-width="1.0" stroke-linejoin="round" stroke-linecap="butt" d="m239.28871 214.70892l0 0c-2.8527374 -5.357605 -0.81510925 -12.020447 4.551193 -14.881897l0 0c2.5769806 -1.374115 5.592621 -1.6699066 8.383514 -0.82229614c2.7908936 0.8476105 5.128418 2.7691803 6.4983826 5.34198l0 0c2.8527222 5.357605 0.815094 12.020447 -4.551193 14.881897l0 0c-5.3663025 2.861435 -12.029144 0.8379059 -14.881897 -4.519684z" fill-rule="evenodd"/><path fill="#434343" d="m283.93964 195.78241l0 0c-2.8527527 -5.357605 -0.8151245 -12.020447 4.551178 -14.881897l0 0c2.5769958 -1.374115 5.592621 -1.6698914 8.383514 -0.82229614c2.790924 0.8476105 5.1284485 2.7691803 6.4983826 5.34198l0 0c2.8527527 5.357605 0.815094 12.020447 -4.551178 14.881897l0 0c-5.3663025 2.8614502 -12.029144 0.8379059 -14.881897 -4.519684z" fill-rule="evenodd"/><path stroke="#000000" stroke-width="1.0" stroke-linejoin="round" stroke-linecap="butt" d="m283.93964 195.78241l0 0c-2.8527527 -5.357605 -0.8151245 -12.020447 4.551178 -14.881897l0 0c2.5769958 -1.374115 5.592621 -1.6698914 8.383514 -0.82229614c2.790924 0.8476105 5.1284485 2.7691803 6.4983826 5.34198l0 0c2.8527527 5.357605 0.815094 12.020447 -4.551178 14.881897l0 0c-5.3663025 2.8614502 -12.029144 0.8379059 -14.881897 -4.519684z" fill-rule="evenodd"/><path fill="#434343" d="m282.01828 233.22678l0 0c-1.7916565 -3.374588 -0.9244385 -7.3511505 1.9370117 -8.881882l0 0c1.374115 -0.73509216 3.033722 -0.7963257 4.6137695 -0.17021179c1.5800171 0.62609863 2.9510498 1.8882599 3.811432 3.508789l0 0c1.7916565 3.374588 0.9244385 7.3511505 -1.9370117 8.881897l0 0c-2.8614502 1.5307312 -6.633545 0.035995483 -8.425201 -3.3385925z" fill-rule="evenodd"/><path stroke="#000000" stroke-width="1.0" stroke-linejoin="round" stroke-linecap="butt" d="m282.01828 233.22678l0 0c-1.7916565 -3.374588 -0.9244385 -7.3511505 1.9370117 -8.881882l0 0c1.374115 -0.73509216 3.033722 -0.7963257 4.6137695 -0.17021179c1.5800171 0.62609863 2.9510498 1.8882599 3.811432 3.508789l0 0c1.7916565 3.374588 0.9244385 7.3511505 -1.9370117 8.881897l0 0c-2.8614502 1.5307312 -6.633545 0.035995483 -8.425201 -3.3385925z" fill-rule="evenodd"/><path fill="#cc0000" d="m52.15745 77.54064l29.5013 -29.5013l31.338623 31.33862l31.338623 -31.33862l29.501297 29.5013l-31.338608 31.338623l31.338608 31.338615l-29.501297 29.501312l-31.338623 -31.338623l-31.338623 31.338623l-29.5013 -29.501312l31.33862 -31.338615z" fill-rule="evenodd"/><path stroke="#e69138" stroke-width="1.0" stroke-linejoin="round" stroke-linecap="butt" d="m52.15745 77.54064l29.5013 -29.5013l31.338623 31.33862l31.338623 -31.33862l29.501297 29.5013l-31.338608 31.338623l31.338608 31.338615l-29.501297 29.501312l-31.338623 -31.338623l-31.338623 31.338623l-29.5013 -29.501312l31.33862 -31.338615z" fill-rule="evenodd"/><path fill="#666666" d="m69.16273 214.71391l-27.650917 0l34.286087 51.981613z" fill-rule="evenodd"/><path fill="#666666" d="m134.55118 214.71391l27.650925 0l-34.286095 51.981613z" fill-rule="evenodd"/></g></svg>